# AST/ASF file generated using VICON BodyLanguage
# -----------------------------------------------
:version 1.10
:name VICON
:units
  mass 1.0
  length 0.45
  angle deg
:documentation
   .ast/.asf automatically generated from VICON data using
   VICON BodyBuilder and BodyLanguage model FoxedUp or BRILLIANT.MOD
:root
   order TX TY TZ RX RY RZ
   axis XYZ
   position 0 0 0  
   orientation 0 0 0 
:bonedata
  begin
     id 1 
     name lhipjoint
     direction 0.588788 -0.725889 0.355548 
     length 2.37778 
     axis 0 0 0  XYZ
  end
  begin
     id 2 
     name lfemur
     direction 0.34202 -0.939693 0  
     length 6.86393  
     axis 0 0 20  XYZ
    dof rx ry rz
    limits (-160.0 20.0)
           (-70.0 70.0)
           (-60.0 70.0)
  end
  begin
     id 3 
     name ltibia
     direction 0.34202 -0.939693 0   
     length 7.32851   
     axis 0 0 20   XYZ
    dof rx
    limits (-10.0 170.0)
  end
  begin
     id 4 
     name lfoot
     direction 0.0626533 -0.172138 0.983078   
     length 1.98929   
     axis -90 7.62852e-016 20   XYZ
    dof rx rz
    limits (-45.0 90.0)
           (-70.0 20.0)
  end
  begin
     id 5 
     name ltoes
     direction 1.53647e-011 -4.21734e-011 1   
     length 1.00479   
     axis -90 7.62852e-016 20   XYZ
    dof rx
    limits (-90.0 20.0)
  end
  begin
     id 6 
     name rhipjoint
     direction -0.59141 -0.724168 0.354705   
     length 2.38343  
     axis 0 0 0  XYZ 
  end
  begin
     id 7 
     name rfemur
     direction -0.34202 -0.939693 0   
     length 6.95589   
     axis 0 0 -20   XYZ
    dof rx ry rz
    limits (-160.0 20.0)
           (-70.0 70.0)
           (-70.0 60.0)
  end
  begin
     id 8 
     name rtibia
     direction -0.34202 -0.939693 0   
     length 7.32327   
     axis 0 0 -20   XYZ
    dof rx
    limits (-10.0 170.0)
 end
 begin
     id 9 
     name rfoot
     direction -0.0660461 -0.18146 0.981178   
     length 1.85272  
     axis -90 -7.62852e-016 -20   XYZ
    dof rx rz
    limits (-45.0 90.0)
           (-20.0 70.0)
  end
  begin
     id 10 
     name rtoes
     direction -1.53586e-011 -4.21988e-011 1   
     length 0.93746   
     axis -90 -7.62852e-016 -20   XYZ
    dof rx
    limits (-90.0 20.0)
  end
  begin
     id 11 
     name lowerback
     direction -0.0107982 0.991059 0.13299   
     length 1.98691   
     axis 0 0 0   XYZ
    dof rx ry rz
    limits (-20.0 45.0)
           (-30.0 30.0)
           (-30.0 30.0)
  end
  begin
     id 12 
     name upperback
     direction 0.0076296 0.999916 0.0104576   
     length 1.99501   
     axis 0 0 0   XYZ
    dof rx ry rz
    limits (-20.0 45.0)
           (-30.0 30.0)
           (-30.0 30.0)
  end
  begin
     id 13 
     name thorax
     direction 0.01176 0.998615 -0.0512909   
     length 2.03144   
     axis 0 0 0   XYZ
    dof rx ry rz
    limits (-20.0 45.0)
           (-30.0 30.0)
           (-30.0 30.0)
  end
  begin
     id 14 
     name lowerneck
     direction -0.0171909 0.999644 0.0204011   
     length 1.71818   
     axis 0 0 0   XYZ
    dof rx ry rz
    limits (-20.0 45.0)
           (-30.0 30.0)
           (-30.0 30.0)
  end
  begin
     id 15 
     name upperneck
     direction 0.0250902 0.997482 -0.0663316   
     length 1.66199   
     axis 0 0 0   XYZ
    dof rx ry rz
    limits (-20.0 45.0)
           (-30.0 30.0)
           (-30.0 30.0)
  end
  begin
     id 16
     name head
     direction 0.00881535 0.99956 -0.0283365  
     length 1.81545  
     axis 0 0 0   XYZ
    dof rx ry rz
    limits (-20.0 45.0)
           (-30.0 30.0)
           (-30.0 30.0)
  end
  begin
     id 17 
     name lclavicle
     direction 0.840411 0.486876 -0.238035  
     length 3.30409  
     axis 0 0 0   XYZ
    dof ry rz
    limits (-20.0 10.0)
           (0.0 20.0)
  end
  begin
     id 18 
     name lhumerus
     direction 1 -4.48977e-011 -5.16239e-027   
     length 4.62672   
     axis 180 -30 -90   XYZ
    dof rx ry rz
    limits (-60.0 90.0)
           (-90.0 90.0)
           (-90.0 90.0)
  end
  begin
     id 19
     name lradius
     direction 1 -4.48977e-011 -8.71171e-027   
     length 3.11018   
     axis 180 -30 -90   XYZ
    dof rx
    limits (-10.0 170.0)
  end
  begin
     id 20
     name lwrist
     direction 1 -4.48912e-011 -1.03764e-026   
     length 1.55509   
     axis 9.09556e-015 90 90   XYZ
    dof ry
    limits (-180.0 0.0)
 end
  begin
     id 21 
     name lhand
     direction 1 -4.49072e-011 -2.07528e-026   
     length 0.743834   
     axis 1.3242e-014 90 90   XYZ
    dof rx rz
    limits (-90.0 90.0)
           (-45.0 45.0)
  end
  begin
     id 22 
     name lfingers
     direction 1 -4.48909e-011 -4.15056e-026   
     length 0.599698   
     axis 2.64841e-014 90 90   XYZ
    dof rx
    limits (0.0 90.0)
  end
  begin
     id 23
     name lthumb
     direction 0.707107 -6.35013e-011 0.707107   
     length 0.86105   
     axis -90 45 2.85299e-015   XYZ
    dof rx rz
    limits (-45.0 45.0)
           (-45.0 45.0)
  end
  begin
     id 24 
     name rclavicle
     direction -0.835208 0.500237 -0.228452   
     length 3.2716  
     axis 0 0 0   XYZ 
    dof ry rz
    limits (-10.0 20.0)
           (-20.0 0.0)
  end
  begin
     id 25 
     name rhumerus
     direction -1 -4.48978e-011 -5.1953e-028  
     length 4.55919   
     axis 180 30 90   XYZ
    dof rx ry rz
    limits (-90.0 60.0)
           (-90.0 90.0)
           (-90.0 90.0)
  end
  begin
     id 26 
     name rradius
     direction -1 -4.48961e-011 -5.99546e-027   
     length 3.22748   
     axis 180 30 90   XYZ
    dof rx
    limits (-10.0 170.0)
  end
  begin
     id 27 
     name rwrist
     direction -1 -4.48986e-011 -1.03764e-026   
     length 1.61374   
     axis 9.09556e-015 -90 -90   XYZ
    dof ry
    limits (-180.0 0.0)
  end
  begin
     id 28
     name rhand
     direction -1 -4.4899e-011 -2.07528e-026   
     length 0.700882   
     axis 1.3242e-014 -90 -90   XYZ
    dof rx rz
    limits (-90.0 90.0)
           (-45.0 45.0)
  end
  begin
     id 29
     name rfingers
     direction -1 -4.48991e-011 -4.15056e-026   
     length 0.565069   
     axis 2.64841e-014 -90 -90   XYZ
    dof rx
    limits (0.0 90.0)
  end
  begin
     id 30
     name rthumb
     direction -0.707107 -6.34804e-011 0.707107   
     length 0.811329   
     axis -90 -45 -2.85299e-015   XYZ
    dof rx rz
    limits (-45.0 45.0)
           (-45.0 45.0)
  end
:hierarchy
  begin
    root lhipjoint rhipjoint lowerback
    lhipjoint lfemur
    lfemur ltibia
    ltibia lfoot
    lfoot ltoes
    rhipjoint rfemur
    rfemur rtibia
    rtibia rfoot
    rfoot rtoes
    lowerback upperback
    upperback thorax
    thorax lowerneck lclavicle rclavicle
    lowerneck upperneck
    upperneck head
    lclavicle lhumerus
    lhumerus lradius
    lradius lwrist
    lwrist lhand lthumb
    lhand lfingers
    rclavicle rhumerus
    rhumerus rradius
    rradius rwrist
    rwrist rhand rthumb
    rhand rfingers
  end

#!OML:ASF F:\VICON\USERDATA\INSTALL\SteveWalk\SteveWalk.ASF
:FULLY-SPECIFIED
:DEGREES
159
root -0.653169 15.9858 -12.7694 17.9748 -5.98859 -0.48009
lowerback -15.8896 2.43223 -0.668323
upperback -5.09658 3.3141 -0.273981
thorax 3.45657 1.63959 0.701075
lowerneck -3.68873 0.485547 0.768713
upperneck 6.43604 0.700259 -1.44974
head 2.68793 0.320505 -0.572439
rclavicle -3.61384e-014 -3.8763e-015
rhumerus -18.3888 7.50351 -85.1661
rradius 54.8682
rwrist -14.9614
rhand -17.8302 -32.5549
rfingers 7.12502
rthumb 8.43423 -62.3665
lclavicle -3.61384e-014 -3.8763e-015
lhumerus -64.0862 30.6746 46.2697
lradius 11.2644
lwrist -41.4356
lhand -17.3316 -18.9306
lfingers 7.12502
lthumb 8.91532 10.861
rfemur -0.631259 -4.36362 20.9013
rtibia 22.4413
rfoot -22.0494 17.8548
rtoes -12.181
lfemur -48.5736 5.66597 -25.1279
ltibia 17.0728
lfoot -5.16625 -1.81396
ltoes -15.3342
160
root -0.648398 15.9832 -12.5188 17.9815 -5.61253 -0.437938
lowerback -15.9837 2.31996 -0.883363
upperback -5.20532 3.20251 -0.340611
thorax 3.38546 1.5856 0.732711
lowerneck -3.9448 0.426996 0.87991
upperneck 6.82362 0.605741 -1.28547
head 2.86505 0.280153 -0.54349
rclavicle 4.98162e-014 1.4064e-014
rhumerus -19.1371 7.12891 -85.231
rradius 54.9333
rwrist -15.0656
rhand -17.8687 -32.4613
rfingers 7.12502
rthumb 8.39706 -62.2744
lclavicle 4.98162e-014 1.4064e-014
lhumerus -65.465 31.7109 43.5026
lradius 11.0178
lwrist -43.5593
lhand -17.042 -18.3103
lfingers 7.12502
lthumb 9.19479 11.4692
rfemur -0.0183913 -4.0853 20.751
rtibia 22.9316
rfoot -20.5289 19.0727
rtoes -11.277
lfemur -48.9309 4.68677 -24.6895
ltibia 19.173
lfoot -2.52147 -1.61585
ltoes -15.6143
161
root -0.644932 15.987 -12.2638 17.987 -5.29805 -0.284019
lowerback -16.2883 2.18531 -1.27679
upperback -5.14183 3.0947 -0.412513
thorax 3.59926 1.53015 0.873762
lowerneck -4.48666 0.388551 0.829545
upperneck 7.21386 0.530289 -0.923127
head 3.09726 0.252343 -0.421674
rclavicle -2.83796e-014 -6.31141e-015
rhumerus -19.7463 6.71195 -85.2563
rradius 54.9542
rwrist -14.8023
rhand -17.6726 -32.373
rfingers 7.12502
rthumb 8.5863 -62.1784
lclavicle -2.83796e-014 -6.31141e-015
lhumerus -66.166 32.3887 41.957
lradius 10.9492
lwrist -44.6278
lhand -16.7136 -17.5042
lfingers 7.12502
lthumb 9.51172 12.2612
rfemur 0.494835 -3.62641 20.4955
rtibia 23.6526
rfoot -18.6024 18.9627
rtoes -13.1231
lfemur -49.4296 3.75882 -24.2368
ltibia 21.3581
lfoot -0.835655 -1.77643
ltoes -12.6563
162
root -0.643475 15.978 -12.0126 17.9584 -5.02073 0.179754
lowerback -16.578 1.95971 -2.0446
upperback -5.07479 2.9338 -0.537904
thorax 3.79474 1.44761 1.15763
lowerneck -4.74354 0.320162 0.74628
upperneck 7.33936 0.415514 -0.560772
head 3.18625 0.206141 -0.294539
rclavicle -1.50987e-014 2.18663e-015
rhumerus -20.6444 6.43514 -85.3599
rradius 55.1077
rwrist -14.3639
rhand -17.6936 -32.1089
rfingers 7.12502
rthumb 8.56599 -61.9152
lclavicle -1.50987e-014 2.18663e-015
lhumerus -67.3803 33.4861 39.4865
lradius 10.7048
lwrist -46.5013
lhand -16.5879 -17.4628
lfingers 7.12502
lthumb 9.63294 12.2969
rfemur 0.756952 -3.2929 19.9478
rtibia 24.8691
rfoot -16.296 19.1432
rtoes -12.5966
lfemur -49.9095 3.19833 -24.4825
ltibia 23.4567
lfoot 0.120894 -2.50942
ltoes -8.80771
163
root -0.64591 15.9553 -11.7769 17.9528 -4.66321 0.790632
lowerback -16.6646 1.71067 -2.96992
upperback -5.14807 2.76784 -0.736529
thorax 3.7324 1.36697 1.43949
lowerneck -4.41405 0.15524 0.726962
upperneck 7.00702 0.177466 -0.297708
head 3.00712 0.0971023 -0.215236
rclavicle 7.69708e-015 -7.55382e-015
rhumerus -21.7363 5.92852 -85.5413
rradius 55.1969
rwrist -14.2165
rhand -18.016 -32.1547
rfingers 7.12502
rthumb 8.25491 -61.9735
lclavicle 7.69708e-015 -7.55382e-015
lhumerus -69.1386 34.7039 35.9873
lradius 10.3879
lwrist -49.421
lhand -16.6154 -17.9685
lfingers 7.12502
lthumb 9.60639 11.7924
rfemur 0.602245 -3.13672 19.3386
rtibia 26.7344
rfoot -14.816 19.0054
rtoes -14.3679
lfemur -50.3255 2.4659 -24.8387
ltibia 25.4263
lfoot 0.744038 -3.04528
ltoes -8.61595
164
root -0.648097 15.9474 -11.5452 17.9557 -4.08427 1.24648
lowerback -16.6349 1.46721 -3.68304
upperback -5.26555 2.5689 -0.921733
thorax 3.57555 1.27348 1.60444
lowerneck -4.35928 0.0166454 0.73149
upperneck 7.01353 -0.0320529 0.0224079
head 2.99747 0.00471755 -0.120903
rclavicle -2.46068e-014 5.56597e-015
rhumerus -22.8688 5.17451 -85.7039
rradius 55.1736
rwrist -14.4432
rhand -18.1844 -32.3186
rfingers 7.12502
rthumb 8.09234 -62.1436
lclavicle -2.46068e-014 5.56597e-015
lhumerus -70.8777 35.8035 32.3972
lradius 10.0985
lwrist -52.5438
lhand -16.7431 -18.6252
lfingers 7.12502
lthumb 9.48323 11.1414
rfemur -0.11823 -3.20391 18.985
rtibia 29.1781
rfoot -12.5391 19.0196
rtoes -15.071
lfemur -50.6306 1.5847 -24.9771
ltibia 27.3187
lfoot 0.747586 -3.03274
ltoes -9.15518
165
root -0.647297 15.9573 -11.306 17.8388 -3.33065 1.58245
lowerback -16.4775 1.18156 -4.19447
upperback -5.38329 2.27098 -1.04595
thorax 3.36553 1.13342 1.69823
lowerneck -4.63205 -0.0509583 0.7283
upperneck 7.53466 -0.157029 0.408669
head 3.22782 -0.0409607 -0.000772784
rclavicle -2.71621e-015 7.35503e-015
rhumerus -24.3792 4.4595 -85.8594
rradius 55.5268
rwrist -15.0909
rhand -18.1224 -32.3247
rfingers 7.12502
rthumb 8.15218 -62.1475
lclavicle -2.71621e-015 7.35503e-015
lhumerus -71.5599 36.4341 30.7054
lradius 9.82607
lwrist -53.9304
lhand -16.471 -18.1314
lfingers 7.12502
lthumb 9.74572 11.6231
rfemur -1.10026 -3.67456 18.7265
rtibia 32.0388
rfoot -8.46861 19.5613
rtoes -12.3597
lfemur -50.6062 0.82351 -25.1761
ltibia 29.1384
lfoot 0.0421505 -2.91164
ltoes -10.9087
166
root -0.647037 15.9628 -11.0687 17.6292 -2.82286 2.07319
lowerback -16.3603 0.933997 -4.86203
upperback -5.36879 2.05426 -1.22185
thorax 3.31069 1.02886 1.8456
lowerneck -4.71999 -0.155594 0.801133
upperneck 7.73627 -0.327194 0.675657
head 3.3145 -0.111744 0.0660815
rclavicle -1.81329e-014 2.18663e-015
rhumerus -25.9214 3.75916 -86.0534
rradius 56.2057
rwrist -15.2701
rhand -17.6219 -38.5838
rfingers 7.12502
rthumb 8.63519 -68.3872
lclavicle -1.81329e-014 2.18663e-015
lhumerus -72.2876 37.1809 28.9909
lradius 9.76122
lwrist -55.3202
lhand -15.7462 -17.3276
lfingers 7.12502
lthumb 10.4449 12.3929
rfemur -2.12472 -4.16244 18.1504
rtibia 35.1654
rfoot -3.94218 19.7812
rtoes -10.7636
lfemur -50.3099 0.310397 -25.7077
ltibia 30.79
lfoot -1.06084 -3.22111
ltoes -11.8145
167
root -0.650253 15.9616 -10.8426 17.441 -2.66434 2.69334
lowerback -16.2102 0.780183 -5.74451
upperback -5.29961 1.99495 -1.45414
thorax 3.28108 1.00098 2.08318
lowerneck -4.79953 -0.256383 0.781079
upperneck 7.71564 -0.492313 1.04921
head 3.32404 -0.179459 0.184047
rclavicle -1.71887e-014 -2.78299e-015
rhumerus -27.0309 2.86354 -86.1199
rradius 56.0186
rwrist -14.6094
rhand -16.7437 -37.4268
rfingers 7.12502
rthumb 9.4826 -67.1934
lclavicle -1.71887e-014 -2.78299e-015
lhumerus -73.0501 37.8777 27.2891
lradius 9.93801
lwrist -56.5475
lhand -15.0945 -17.1867
lfingers 7.12502
lthumb 11.0736 12.5011
rfemur -3.35321 -4.26313 17.3537
rtibia 38.4017
rfoot 0.911981 19.3808
rtoes -9.79082
lfemur -49.9728 0.023254 -26.4297
ltibia 32.1911
lfoot -2.14737 -3.92272
ltoes -10.0877
168
root -0.654996 15.9692 -10.625 17.2645 -2.48353 3.14699
lowerback -15.8663 0.660798 -6.47973
upperback -5.32729 1.93193 -1.6273
thorax 3.04969 0.979444 2.29239
lowerneck -4.72612 -0.324141 0.682505
upperneck 7.59529 -0.609373 1.4976
head 3.27121 -0.224034 0.342144
rclavicle 2.99947e-014 -1.55052e-014
rhumerus -28.0683 1.99533 -86.1773
rradius 55.382
rwrist -13.9361
rhand -16.6342 -35.1179
rfingers 7.12502
rthumb 9.58826 -64.8797
lclavicle 2.99947e-014 -1.55052e-014
lhumerus -73.9275 38.4215 25.5337
lradius 10.1575
lwrist -57.6602
lhand -14.7775 -17.4582
lfingers 7.12502
lthumb 11.3794 12.2131
rfemur -4.82441 -4.21189 16.7832
rtibia 41.6547
rfoot 5.64025 18.7694
rtoes -8.48342
lfemur -49.5726 -0.254126 -26.9039
ltibia 33.3094
lfoot -2.84503 -4.40721
ltoes -6.38516
169
root -0.655577 15.9882 -10.4009 17.0333 -2.21661 3.60215
lowerback -15.5618 0.511261 -7.12092
upperback -5.3614 1.81179 -1.80445
thorax 2.84184 0.929804 2.43588
lowerneck -4.51762 -0.39807 0.714177
upperneck 7.59612 -0.73116 1.78252
head 3.23379 -0.273505 0.424322
rclavicle -5.00689e-015 1.82882e-014
rhumerus -29.2244 1.2629 -86.3292
rradius 54.8785
rwrist -13.8532
rhand -16.8144 -35.4823
rfingers 7.12502
rthumb 9.41443 -65.252
lclavicle -5.00689e-015 1.82882e-014
lhumerus -73.1678 38.3674 26.3206
lradius 10.234
lwrist -56.7429
lhand -14.6518 -17.534
lfingers 7.12502
lthumb 11.5005 12.1305
rfemur -6.2692 -4.17138 16.2121
rtibia 44.9393
rfoot 9.39802 18.9072
rtoes -7.3225
lfemur -48.9328 -0.543728 -27.3881
ltibia 34.2111
lfoot -3.55197 -4.47529
ltoes -3.62112
170
root -0.648937 16.0044 -10.1711 16.5771 -1.66923 4.17388
lowerback -15.121 0.251567 -7.71613
upperback -5.31486 1.52693 -1.99562
thorax 2.66611 0.796228 2.51045
lowerneck -4.50421 -0.446539 0.729078
upperneck 7.91552 -0.82385 2.03175
head 3.34394 -0.30636 0.500021
rclavicle 7.78366e-015 -1.23246e-014
rhumerus -30.3046 0.73377 -86.5021
rradius 54.0685
rwrist -14.1636
rhand -16.9462 -35.1589
rfingers 7.12502
rthumb 9.28728 -64.9343
lclavicle 7.78366e-015 -1.23246e-014
lhumerus -72.949 38.597 26.1996
lradius 10.1773
lwrist -56.4795
lhand -14.5742 -17.8728
lfingers 7.12502
lthumb 11.5754 11.7875
rfemur -7.32487 -4.33553 15.5877
rtibia 48.1544
rfoot 12.1251 19.5586
rtoes -7.27119
lfemur -47.8336 -0.931784 -28.0526
ltibia 34.8928
lfoot -4.67748 -4.56267
ltoes -3.63335
171
root -0.652865 16.0289 -9.95591 16.5876 -2.402 4.03345
lowerback -15.1866 0.423434 -7.89879
upperback -5.32114 1.78469 -2.01202
thorax 2.66235 0.924671 2.63897
lowerneck -4.8505 -0.50199 0.710006
upperneck 8.15193 -0.918762 2.16631
head 3.4951 -0.344136 0.543909
rclavicle -5.78339e-015 2.06736e-014
rhumerus -31.0661 0.27978 -86.6522
rradius 52.6663
rwrist -14.3777
rhand -17.0049 -31.3165
rfingers 7.12502
rthumb 9.23059 -61.0945
lclavicle -5.78339e-015 2.06736e-014
lhumerus -71.314 38.3348 28.5336
lradius 10.3318
lwrist -54.2115
lhand -14.5815 -17.7178
lfingers 7.12502
lthumb 11.5683 11.9429
rfemur -9.33589 -3.31572 15.4461
rtibia 51.338
rfoot 15.0723 19.7375
rtoes -8.65568
lfemur -47.3053 -0.117727 -28.21
ltibia 35.4582
lfoot -5.92564 -4.46881
ltoes -6.03209
172
root -0.645437 16.0639 -9.73762 16.4028 -2.85577 4.10291
lowerback -15.1282 0.474029 -8.08349
upperback -5.17342 1.88188 -2.04906
thorax 2.77194 0.965305 2.71994
lowerneck -5.24905 -0.537697 0.692976
upperneck 8.29105 -0.973798 2.15612
head 3.62193 -0.368515 0.541248
rclavicle -3.94463e-015 6.36111e-015
rhumerus -31.6225 0.0547252 -86.9242
rradius 52.3188
rwrist -15.1609
rhand -17.1958 -34.3198
rfingers 7.12502
rthumb 9.04636 -64.1058
lclavicle -3.94463e-015 6.36111e-015
lhumerus -68.136 37.1725 33.7041
lradius 10.8479
lwrist -49.4091
lhand -14.5565 -17.0687
lfingers 7.12502
lthumb 11.5924 12.5907
rfemur -11.1249 -2.74315 15.1102
rtibia 54.3924
rfoot 18.6546 19.0888
rtoes -9.11967
lfemur -46.4367 0.410137 -28.5448
ltibia 35.8822
lfoot -6.87699 -4.36935
ltoes -6.67802
